<svg width="379" height="585" viewBox="0 0 379 585" fill="none" xmlns="http://www.w3.org/2000/svg">
<g filter="url(#filter0_d_9_111)">
<path d="M375 0H4V577H375V0Z" fill="#56AAF8"/>
<path d="M4.5 0.5H374.5V576.5H4.5V0.5Z" stroke="black"/>
</g>
<path d="M101.458 39.6H103.954V57H101.458V39.6ZM109.652 42.576H112.1V46.992H114.788V48.888H112.1V57H109.652V48.888H107.876V46.992H109.652V42.576ZM117.958 43.488L116.71 42.888C117.062 42.568 117.334 42.128 117.526 41.568C117.734 40.992 117.782 40.424 117.67 39.864L119.59 39.696C119.686 40.144 119.662 40.616 119.518 41.112C119.39 41.608 119.182 42.072 118.894 42.504C118.622 42.92 118.31 43.248 117.958 43.488ZM125.598 57.216C124.862 57.216 124.158 57.088 123.486 56.832C122.814 56.56 122.246 56.176 121.782 55.68L122.814 54.288C123.23 54.688 123.662 54.992 124.11 55.2C124.574 55.408 125.006 55.512 125.406 55.512C125.87 55.512 126.278 55.424 126.63 55.248C126.982 55.056 127.158 54.744 127.158 54.312C127.158 53.96 127.038 53.688 126.798 53.496C126.574 53.304 126.286 53.144 125.934 53.016C125.582 52.888 125.206 52.768 124.806 52.656C123.094 52.096 122.238 51.112 122.238 49.704C122.238 49.176 122.366 48.68 122.622 48.216C122.894 47.736 123.302 47.352 123.846 47.064C124.39 46.76 125.062 46.608 125.862 46.608C126.566 46.608 127.198 46.696 127.758 46.872C128.318 47.032 128.838 47.312 129.318 47.712L128.382 49.176C128.094 48.888 127.75 48.672 127.35 48.528C126.966 48.368 126.614 48.28 126.294 48.264C125.862 48.264 125.486 48.368 125.166 48.576C124.846 48.768 124.686 49.032 124.686 49.368C124.67 49.816 124.854 50.144 125.238 50.352C125.622 50.544 126.062 50.72 126.558 50.88C126.622 50.896 126.686 50.92 126.75 50.952C126.83 50.968 126.91 50.992 126.99 51.024C127.726 51.264 128.334 51.592 128.814 52.008C129.31 52.424 129.558 53.032 129.558 53.832C129.558 54.44 129.414 55 129.126 55.512C128.838 56.024 128.398 56.44 127.806 56.76C127.23 57.064 126.494 57.216 125.598 57.216ZM137.469 42.576H139.917V46.992H142.605V48.888H139.917V57H137.469V48.888H135.693V46.992H137.469V42.576ZM145.654 46.968H148.078V57H145.654V46.968ZM145.534 43.368C145.534 43 145.678 42.688 145.966 42.432C146.27 42.176 146.598 42.048 146.95 42.048C147.302 42.048 147.622 42.176 147.91 42.432C148.198 42.688 148.342 43 148.342 43.368C148.342 43.768 148.198 44.088 147.91 44.328C147.622 44.568 147.302 44.688 146.95 44.688C146.598 44.688 146.27 44.568 145.966 44.328C145.678 44.088 145.534 43.768 145.534 43.368ZM154.429 46.968L154.621 48.792C154.989 48.088 155.501 47.544 156.157 47.16C156.829 46.76 157.589 46.56 158.437 46.56C159.253 46.56 159.933 46.752 160.477 47.136C161.037 47.504 161.389 48.024 161.533 48.696C161.949 48.024 162.477 47.504 163.117 47.136C163.757 46.752 164.437 46.56 165.157 46.56C166.149 46.56 166.933 46.84 167.509 47.4C168.085 47.944 168.381 48.664 168.397 49.56V57H165.997V50.472C165.981 49.96 165.861 49.536 165.637 49.2C165.429 48.864 165.045 48.68 164.485 48.648C163.909 48.648 163.397 48.824 162.949 49.176C162.517 49.528 162.173 49.984 161.917 50.544C161.677 51.104 161.549 51.704 161.533 52.344V57H159.109V50.472C159.093 49.96 158.965 49.536 158.725 49.2C158.501 48.864 158.109 48.68 157.549 48.648C156.989 48.648 156.485 48.824 156.037 49.176C155.605 49.528 155.269 49.992 155.029 50.568C154.789 51.128 154.669 51.728 154.669 52.368V57H152.245V46.968H154.429ZM177.275 57.24C176.123 57.24 175.131 57.016 174.299 56.568C173.467 56.104 172.827 55.472 172.379 54.672C171.931 53.856 171.707 52.936 171.707 51.912C171.707 50.92 171.955 50.024 172.451 49.224C172.963 48.408 173.643 47.76 174.491 47.28C175.339 46.8 176.283 46.56 177.323 46.56C178.667 46.56 179.779 46.952 180.659 47.736C181.555 48.504 182.155 49.592 182.459 51L174.611 53.712C174.899 54.176 175.275 54.536 175.739 54.792C176.219 55.048 176.747 55.176 177.323 55.176C177.755 55.176 178.171 55.104 178.571 54.96C178.971 54.8 179.347 54.592 179.699 54.336L180.803 56.136C180.291 56.472 179.723 56.744 179.099 56.952C178.491 57.144 177.883 57.24 177.275 57.24ZM174.131 52.272L179.723 50.232C179.515 49.768 179.203 49.36 178.787 49.008C178.387 48.656 177.843 48.48 177.155 48.48C176.259 48.48 175.523 48.792 174.947 49.416C174.387 50.024 174.107 50.808 174.107 51.768C174.107 51.944 174.115 52.112 174.131 52.272ZM189.897 57V49.128H188.193V46.968H189.897V42.864C189.897 41.44 190.233 40.336 190.905 39.552C191.593 38.752 192.593 38.352 193.905 38.352C194.257 38.352 194.641 38.408 195.057 38.52C195.489 38.616 195.873 38.776 196.209 39L195.177 40.752C195.033 40.592 194.865 40.488 194.673 40.44C194.497 40.376 194.321 40.344 194.145 40.344C193.585 40.344 193.137 40.544 192.801 40.944C192.481 41.328 192.321 41.984 192.321 42.912V46.968H195.489V49.128H192.321V57H189.897ZM197.292 51.888C197.292 50.88 197.532 49.976 198.012 49.176C198.492 48.36 199.156 47.72 200.004 47.256C200.852 46.792 201.82 46.56 202.908 46.56C204.012 46.56 204.972 46.792 205.788 47.256C206.62 47.72 207.26 48.36 207.708 49.176C208.172 49.976 208.404 50.88 208.404 51.888C208.404 52.896 208.172 53.808 207.708 54.624C207.244 55.424 206.596 56.064 205.764 56.544C204.948 57.008 203.98 57.24 202.86 57.24C201.804 57.24 200.852 57.024 200.004 56.592C199.172 56.16 198.508 55.544 198.012 54.744C197.532 53.928 197.292 52.976 197.292 51.888ZM199.74 51.912C199.74 52.536 199.876 53.104 200.148 53.616C200.42 54.112 200.788 54.512 201.252 54.816C201.732 55.104 202.26 55.248 202.836 55.248C203.748 55.248 204.492 54.928 205.068 54.288C205.66 53.648 205.956 52.856 205.956 51.912C205.956 50.968 205.66 50.176 205.068 49.536C204.492 48.88 203.748 48.552 202.836 48.552C202.244 48.552 201.716 48.704 201.252 49.008C200.788 49.312 200.42 49.72 200.148 50.232C199.876 50.744 199.74 51.304 199.74 51.912ZM213.868 46.968L214.06 49.344C214.348 48.768 214.732 48.272 215.212 47.856C215.692 47.44 216.188 47.12 216.7 46.896C217.228 46.672 217.676 46.56 218.044 46.56L217.924 48.96C217.172 48.912 216.508 49.056 215.932 49.392C215.372 49.728 214.932 50.176 214.612 50.736C214.292 51.296 214.132 51.896 214.132 52.536V57H211.708V46.968H213.868ZM227.63 57.216C226.894 57.216 226.19 57.088 225.518 56.832C224.846 56.56 224.278 56.176 223.814 55.68L224.846 54.288C225.262 54.688 225.694 54.992 226.142 55.2C226.606 55.408 227.038 55.512 227.438 55.512C227.902 55.512 228.31 55.424 228.662 55.248C229.014 55.056 229.19 54.744 229.19 54.312C229.19 53.96 229.07 53.688 228.83 53.496C228.606 53.304 228.318 53.144 227.966 53.016C227.614 52.888 227.238 52.768 226.838 52.656C225.126 52.096 224.27 51.112 224.27 49.704C224.27 49.176 224.398 48.68 224.654 48.216C224.926 47.736 225.334 47.352 225.878 47.064C226.422 46.76 227.094 46.608 227.894 46.608C228.598 46.608 229.23 46.696 229.79 46.872C230.35 47.032 230.87 47.312 231.35 47.712L230.414 49.176C230.126 48.888 229.782 48.672 229.382 48.528C228.998 48.368 228.646 48.28 228.326 48.264C227.894 48.264 227.518 48.368 227.198 48.576C226.878 48.768 226.718 49.032 226.718 49.368C226.702 49.816 226.886 50.144 227.27 50.352C227.654 50.544 228.094 50.72 228.59 50.88C228.654 50.896 228.718 50.92 228.782 50.952C228.862 50.968 228.942 50.992 229.022 51.024C229.758 51.264 230.366 51.592 230.846 52.008C231.342 52.424 231.59 53.032 231.59 53.832C231.59 54.44 231.446 55 231.158 55.512C230.87 56.024 230.43 56.44 229.838 56.76C229.262 57.064 228.526 57.216 227.63 57.216ZM234.179 51.888C234.179 50.88 234.419 49.976 234.899 49.176C235.379 48.36 236.043 47.72 236.891 47.256C237.739 46.792 238.707 46.56 239.795 46.56C240.899 46.56 241.859 46.792 242.675 47.256C243.507 47.72 244.147 48.36 244.595 49.176C245.059 49.976 245.291 50.88 245.291 51.888C245.291 52.896 245.059 53.808 244.595 54.624C244.131 55.424 243.483 56.064 242.651 56.544C241.835 57.008 240.867 57.24 239.747 57.24C238.691 57.24 237.739 57.024 236.891 56.592C236.059 56.16 235.395 55.544 234.899 54.744C234.419 53.928 234.179 52.976 234.179 51.888ZM236.627 51.912C236.627 52.536 236.763 53.104 237.035 53.616C237.307 54.112 237.675 54.512 238.139 54.816C238.619 55.104 239.147 55.248 239.723 55.248C240.635 55.248 241.379 54.928 241.955 54.288C242.547 53.648 242.843 52.856 242.843 51.912C242.843 50.968 242.547 50.176 241.955 49.536C241.379 48.88 240.635 48.552 239.723 48.552C239.131 48.552 238.603 48.704 238.139 49.008C237.675 49.312 237.307 49.72 237.035 50.232C236.763 50.744 236.627 51.304 236.627 51.912ZM250.779 46.968L250.971 48.792C251.339 48.088 251.851 47.544 252.507 47.16C253.179 46.76 253.939 46.56 254.787 46.56C255.603 46.56 256.283 46.752 256.827 47.136C257.387 47.504 257.739 48.024 257.883 48.696C258.299 48.024 258.827 47.504 259.467 47.136C260.107 46.752 260.787 46.56 261.507 46.56C262.499 46.56 263.283 46.84 263.859 47.4C264.435 47.944 264.731 48.664 264.747 49.56V57H262.347V50.472C262.331 49.96 262.211 49.536 261.987 49.2C261.779 48.864 261.395 48.68 260.835 48.648C260.259 48.648 259.747 48.824 259.299 49.176C258.867 49.528 258.523 49.984 258.267 50.544C258.027 51.104 257.899 51.704 257.883 52.344V57H255.459V50.472C255.443 49.96 255.315 49.536 255.075 49.2C254.851 48.864 254.459 48.68 253.899 48.648C253.339 48.648 252.835 48.824 252.387 49.176C251.955 49.528 251.619 49.992 251.379 50.568C251.139 51.128 251.019 51.728 251.019 52.368V57H248.595V46.968H250.779ZM273.624 57.24C272.472 57.24 271.48 57.016 270.648 56.568C269.816 56.104 269.176 55.472 268.728 54.672C268.28 53.856 268.056 52.936 268.056 51.912C268.056 50.92 268.304 50.024 268.8 49.224C269.312 48.408 269.992 47.76 270.84 47.28C271.688 46.8 272.632 46.56 273.672 46.56C275.016 46.56 276.128 46.952 277.008 47.736C277.904 48.504 278.504 49.592 278.808 51L270.96 53.712C271.248 54.176 271.624 54.536 272.088 54.792C272.568 55.048 273.096 55.176 273.672 55.176C274.104 55.176 274.52 55.104 274.92 54.96C275.32 54.8 275.696 54.592 276.048 54.336L277.152 56.136C276.64 56.472 276.072 56.744 275.448 56.952C274.84 57.144 274.232 57.24 273.624 57.24ZM270.48 52.272L276.072 50.232C275.864 49.768 275.552 49.36 275.136 49.008C274.736 48.656 274.192 48.48 273.504 48.48C272.608 48.48 271.872 48.792 271.296 49.416C270.736 50.024 270.456 50.808 270.456 51.768C270.456 51.944 270.464 52.112 270.48 52.272ZM137.055 90.992C135.903 90.992 134.959 90.792 134.223 90.392C133.487 89.992 132.807 89.52 132.183 88.976L133.623 87.32C134.119 87.8 134.631 88.176 135.159 88.448C135.703 88.72 136.319 88.856 137.007 88.856C138.095 88.856 138.935 88.6 139.527 88.088C140.119 87.576 140.423 86.888 140.439 86.024V84.2C140.103 84.792 139.583 85.28 138.879 85.664C138.191 86.048 137.359 86.24 136.383 86.24C135.455 86.24 134.607 86.008 133.839 85.544C133.071 85.08 132.455 84.448 131.991 83.648C131.527 82.848 131.295 81.944 131.295 80.936C131.295 79.896 131.535 78.976 132.015 78.176C132.511 77.36 133.159 76.72 133.959 76.256C134.759 75.792 135.615 75.56 136.527 75.56C137.391 75.56 138.175 75.72 138.879 76.04C139.583 76.36 140.111 76.776 140.463 77.288L140.631 75.968H142.863V86.072C142.863 86.984 142.623 87.808 142.143 88.544C141.663 89.296 140.991 89.888 140.127 90.32C139.263 90.768 138.239 90.992 137.055 90.992ZM133.743 80.864C133.743 81.504 133.887 82.08 134.175 82.592C134.479 83.104 134.879 83.512 135.375 83.816C135.887 84.104 136.455 84.248 137.079 84.248C137.927 84.248 138.647 84.032 139.239 83.6C139.831 83.152 140.231 82.584 140.439 81.896V79.832C140.231 79.144 139.823 78.592 139.215 78.176C138.607 77.744 137.895 77.528 137.079 77.528C136.455 77.528 135.887 77.672 135.375 77.96C134.879 78.248 134.479 78.64 134.175 79.136C133.887 79.632 133.743 80.208 133.743 80.864ZM146.159 80.888C146.159 79.88 146.399 78.976 146.879 78.176C147.359 77.36 148.023 76.72 148.871 76.256C149.719 75.792 150.687 75.56 151.775 75.56C152.879 75.56 153.839 75.792 154.655 76.256C155.487 76.72 156.127 77.36 156.575 78.176C157.039 78.976 157.271 79.88 157.271 80.888C157.271 81.896 157.039 82.808 156.575 83.624C156.111 84.424 155.463 85.064 154.631 85.544C153.815 86.008 152.847 86.24 151.727 86.24C150.671 86.24 149.719 86.024 148.871 85.592C148.039 85.16 147.375 84.544 146.879 83.744C146.399 82.928 146.159 81.976 146.159 80.888ZM148.607 80.912C148.607 81.536 148.743 82.104 149.015 82.616C149.287 83.112 149.655 83.512 150.119 83.816C150.599 84.104 151.127 84.248 151.703 84.248C152.615 84.248 153.359 83.928 153.935 83.288C154.527 82.648 154.823 81.856 154.823 80.912C154.823 79.968 154.527 79.176 153.935 78.536C153.359 77.88 152.615 77.552 151.703 77.552C151.111 77.552 150.583 77.704 150.119 78.008C149.655 78.312 149.287 78.72 149.015 79.232C148.743 79.744 148.607 80.304 148.607 80.912ZM159.711 80.888C159.711 79.88 159.951 78.976 160.431 78.176C160.911 77.36 161.575 76.72 162.423 76.256C163.271 75.792 164.239 75.56 165.327 75.56C166.431 75.56 167.391 75.792 168.207 76.256C169.039 76.72 169.679 77.36 170.127 78.176C170.591 78.976 170.823 79.88 170.823 80.888C170.823 81.896 170.591 82.808 170.127 83.624C169.663 84.424 169.015 85.064 168.183 85.544C167.367 86.008 166.399 86.24 165.279 86.24C164.223 86.24 163.271 86.024 162.423 85.592C161.591 85.16 160.927 84.544 160.431 83.744C159.951 82.928 159.711 81.976 159.711 80.888ZM162.159 80.912C162.159 81.536 162.295 82.104 162.567 82.616C162.839 83.112 163.207 83.512 163.671 83.816C164.151 84.104 164.679 84.248 165.255 84.248C166.167 84.248 166.911 83.928 167.487 83.288C168.079 82.648 168.375 81.856 168.375 80.912C168.375 79.968 168.079 79.176 167.487 78.536C166.911 77.88 166.167 77.552 165.255 77.552C164.663 77.552 164.135 77.704 163.671 78.008C163.207 78.312 162.839 78.72 162.567 79.232C162.295 79.744 162.159 80.304 162.159 80.912ZM178.231 86.24C177.287 86.24 176.439 86.024 175.687 85.592C174.935 85.144 174.343 84.512 173.911 83.696C173.479 82.88 173.263 81.928 173.263 80.84C173.263 79.72 173.495 78.768 173.959 77.984C174.423 77.2 175.047 76.6 175.831 76.184C176.631 75.768 177.527 75.56 178.519 75.56C179.255 75.56 179.959 75.704 180.631 75.992C181.319 76.28 181.863 76.688 182.263 77.216V67.352H184.687V86H182.239V84.536C181.759 85.032 181.175 85.44 180.487 85.76C179.815 86.08 179.063 86.24 178.231 86.24ZM178.975 84.2C179.823 84.2 180.527 83.984 181.087 83.552C181.663 83.104 182.047 82.512 182.239 81.776V79.784C182.063 79.112 181.671 78.56 181.063 78.128C180.471 77.696 179.775 77.48 178.975 77.48C178.399 77.48 177.863 77.624 177.367 77.912C176.871 78.184 176.471 78.576 176.167 79.088C175.879 79.584 175.735 80.16 175.735 80.816C175.735 81.44 175.879 82.008 176.167 82.52C176.471 83.032 176.871 83.44 177.367 83.744C177.863 84.048 178.399 84.2 178.975 84.2ZM194.532 75.968L194.7 77.84C195.036 77.152 195.556 76.608 196.26 76.208C196.964 75.792 197.78 75.584 198.708 75.584C199.652 75.584 200.428 75.864 201.036 76.424C201.644 76.968 201.956 77.688 201.972 78.584V86H199.548V79.424C199.532 78.912 199.38 78.496 199.092 78.176C198.804 77.84 198.356 77.664 197.748 77.648C196.9 77.648 196.188 78 195.612 78.704C195.052 79.408 194.772 80.312 194.772 81.416V86H192.348V75.968H194.532ZM210.861 86.24C209.709 86.24 208.717 86.016 207.885 85.568C207.053 85.104 206.413 84.472 205.965 83.672C205.517 82.856 205.293 81.936 205.293 80.912C205.293 79.92 205.541 79.024 206.037 78.224C206.549 77.408 207.229 76.76 208.077 76.28C208.925 75.8 209.869 75.56 210.909 75.56C212.253 75.56 213.365 75.952 214.245 76.736C215.141 77.504 215.741 78.592 216.045 80L208.197 82.712C208.485 83.176 208.861 83.536 209.325 83.792C209.805 84.048 210.333 84.176 210.909 84.176C211.341 84.176 211.757 84.104 212.157 83.96C212.557 83.8 212.933 83.592 213.285 83.336L214.389 85.136C213.877 85.472 213.309 85.744 212.685 85.952C212.077 86.144 211.469 86.24 210.861 86.24ZM207.717 81.272L213.309 79.232C213.101 78.768 212.789 78.36 212.373 78.008C211.973 77.656 211.429 77.48 210.741 77.48C209.845 77.48 209.109 77.792 208.533 78.416C207.973 79.024 207.693 79.808 207.693 80.768C207.693 80.944 207.701 81.112 207.717 81.272ZM225.442 75.968L228.01 81.944L230.386 75.968H232.762L228.178 86.6L224.962 79.76L222.01 86.6L217.402 75.968H219.754L222.298 81.752L224.098 77.6L223.33 75.968H225.442ZM238.368 86.216C237.632 86.216 236.928 86.088 236.256 85.832C235.584 85.56 235.016 85.176 234.552 84.68L235.584 83.288C236 83.688 236.432 83.992 236.88 84.2C237.344 84.408 237.776 84.512 238.176 84.512C238.64 84.512 239.048 84.424 239.4 84.248C239.752 84.056 239.928 83.744 239.928 83.312C239.928 82.96 239.808 82.688 239.568 82.496C239.344 82.304 239.056 82.144 238.704 82.016C238.352 81.888 237.976 81.768 237.576 81.656C235.864 81.096 235.008 80.112 235.008 78.704C235.008 78.176 235.136 77.68 235.392 77.216C235.664 76.736 236.072 76.352 236.616 76.064C237.16 75.76 237.832 75.608 238.632 75.608C239.336 75.608 239.968 75.696 240.528 75.872C241.088 76.032 241.608 76.312 242.088 76.712L241.152 78.176C240.864 77.888 240.52 77.672 240.12 77.528C239.736 77.368 239.384 77.28 239.064 77.264C238.632 77.264 238.256 77.368 237.936 77.576C237.616 77.768 237.456 78.032 237.456 78.368C237.44 78.816 237.624 79.144 238.008 79.352C238.392 79.544 238.832 79.72 239.328 79.88C239.392 79.896 239.456 79.92 239.52 79.952C239.6 79.968 239.68 79.992 239.76 80.024C240.496 80.264 241.104 80.592 241.584 81.008C242.08 81.424 242.328 82.032 242.328 82.832C242.328 83.44 242.184 84 241.896 84.512C241.608 85.024 241.168 85.44 240.576 85.76C240 86.064 239.264 86.216 238.368 86.216ZM245.182 67.76H247.342V81.464H245.182V67.76ZM246.334 85.976C245.886 85.976 245.518 85.856 245.23 85.616C244.942 85.36 244.798 85.032 244.798 84.632C244.798 84.248 244.942 83.928 245.23 83.672C245.534 83.4 245.902 83.264 246.334 83.264C246.766 83.264 247.118 83.4 247.39 83.672C247.678 83.928 247.822 84.248 247.822 84.632C247.822 85.032 247.678 85.36 247.39 85.616C247.118 85.856 246.766 85.976 246.334 85.976Z" fill="black"/>
<path fill-rule="evenodd" clip-rule="evenodd" d="M375 369.645C364.744 367.906 354.198 367 343.438 367C241.575 367 159 448.186 159 548.333C159 558.088 159.783 567.663 161.292 577H375V369.645Z" fill="#EF843B"/>
<path fill-rule="evenodd" clip-rule="evenodd" d="M208.876 577C215.893 557.664 219.715 536.836 219.715 515.13C219.715 413.438 135.832 331 32.3574 331C22.7176 331 13.2478 331.715 4 333.095V576.199C4.32385 576.476 4.65674 576.744 4.99805 577H208.876Z" fill="#FAE16A"/>
<defs>
<filter id="filter0_d_9_111" x="0" y="0" width="379" height="585" filterUnits="userSpaceOnUse" color-interpolation-filters="sRGB">
<feFlood flood-opacity="0" result="BackgroundImageFix"/>
<feColorMatrix in="SourceAlpha" type="matrix" values="0 0 0 0 0 0 0 0 0 0 0 0 0 0 0 0 0 0 127 0" result="hardAlpha"/>
<feOffset dy="4"/>
<feGaussianBlur stdDeviation="2"/>
<feComposite in2="hardAlpha" operator="out"/>
<feColorMatrix type="matrix" values="0 0 0 0 0 0 0 0 0 0 0 0 0 0 0 0 0 0 0.25 0"/>
<feBlend mode="normal" in2="BackgroundImageFix" result="effect1_dropShadow_9_111"/>
<feBlend mode="normal" in="SourceGraphic" in2="effect1_dropShadow_9_111" result="shape"/>
</filter>
</defs>
</svg>
